<svg xmlns="http://www.w3.org/2000/svg" viewBox="0 0 199.59 46.49"><defs><style>.cls-1{fill:#00a651;}.cls-2{fill:#74c592;}.cls-3{fill:#1c75bc;}</style></defs><g id="Layer_2" data-name="Layer 2"><g id="Layer_6_copy" data-name="Layer 6 copy"><path class="cls-1" d="M31.84,3.65a1,1,0,0,0-.05-1.78A23.32,23.32,0,0,0,0,17.58,1,1,0,0,0,1.42,18.7l10.83-5.35h0Z"/><path class="cls-1" d="M1.42,27.8A1,1,0,0,0,0,28.93,23.33,23.33,0,0,0,31.79,44.62a1,1,0,0,0,.05-1.79L21,37.48h0Z"/><path class="cls-2" d="M10.75,17.59,1.26,22.28a1,1,0,0,0,0,1.86l9.49,4.69h0a1,1,0,0,0,1.5-.93V18.51A1,1,0,0,0,10.75,17.59Z"/><path class="cls-3" d="M35.83,41.24A1.75,1.75,0,0,0,37.76,41a23.3,23.3,0,0,0-.14-35.54,1.77,1.77,0,0,0-1.92-.23L16.37,14.81a1.76,1.76,0,0,0-1,1.58V30a1.76,1.76,0,0,0,1,1.58Z"/><path class="cls-1" d="M78.91,29.35H69.73V25H76a2.33,2.33,0,0,0,1.63-.62,2.27,2.27,0,0,0,0-3.2A2.28,2.28,0,0,0,76,20.54H69.73V16.35h9.18a2.33,2.33,0,0,0,1.62-.6,2.09,2.09,0,0,0,.68-1.6,2.21,2.21,0,0,0-.66-1.62,2.31,2.31,0,0,0-1.64-.62H67.4a2.29,2.29,0,0,0-1.63.65,2.25,2.25,0,0,0-.69,1.67V31.47a2.3,2.3,0,0,0,2.32,2.32H78.91a2.35,2.35,0,0,0,1.64-.62,2.22,2.22,0,0,0,.66-1.63,2.11,2.11,0,0,0-.68-1.6A2.32,2.32,0,0,0,78.91,29.35Z"/><path class="cls-1" d="M95.94,21.72a7.88,7.88,0,0,0-6.94-4,8,8,0,0,0-4.08,1.07A7.83,7.83,0,0,0,82,21.72,8.08,8.08,0,0,0,81,25.84a8.44,8.44,0,0,0,1,4.07,7.62,7.62,0,0,0,2.67,2.9,7.47,7.47,0,0,0,7.74,0l.31-.2a1.9,1.9,0,0,0,.4.54,2.37,2.37,0,0,0,3.27,0A2.27,2.27,0,0,0,97,31.52V25.18h0A8,8,0,0,0,95.94,21.72Zm-8.72,7.4a3.48,3.48,0,0,1-1.28-1.33,4.32,4.32,0,0,1,0-3.92,3.58,3.58,0,0,1,1.28-1.34,3.58,3.58,0,0,1,3.58,0A3.38,3.38,0,0,1,92,23.86a4,4,0,0,1,.47,2A3.88,3.88,0,0,1,92,27.79a3.32,3.32,0,0,1-1.24,1.33A3.55,3.55,0,0,1,87.22,29.12Z"/><path class="cls-1" d="M108.83,24.67a12.34,12.34,0,0,0-3.29-1.06,10.87,10.87,0,0,1-1.9-.52,1.37,1.37,0,0,1-.5-.28.44.44,0,0,1-.08-.28c0-.05,0-.12.22-.22a4.57,4.57,0,0,1,2.86-.1,2.55,2.55,0,0,1,1,.62,2.8,2.8,0,0,0,1.44.71,2.29,2.29,0,0,0,1.75-.36,2,2,0,0,0,.83-1.5,2.11,2.11,0,0,0-.55-1.54,6.12,6.12,0,0,0-2.46-1.77,8.87,8.87,0,0,0-3.36-.61,8.4,8.4,0,0,0-2.82.48,5.52,5.52,0,0,0-2.38,1.55,4.1,4.1,0,0,0-1,2.82,4.17,4.17,0,0,0,1.5,3.24,8.88,8.88,0,0,0,4.22,1.76,5.86,5.86,0,0,1,2.31.74c.33.24.33.41.33.49s0,.23-.34.43a3.31,3.31,0,0,1-1.72.33,4.26,4.26,0,0,1-1.72-.33,2.87,2.87,0,0,1-1.06-.68,2.41,2.41,0,0,0-1.46-.75,2.3,2.3,0,0,0-1.74.54A2.2,2.2,0,0,0,98,29.9a2.11,2.11,0,0,0,.6,1.76,7.18,7.18,0,0,0,2.72,1.62,10.54,10.54,0,0,0,3.64.61,8.25,8.25,0,0,0,3.44-.65,5.35,5.35,0,0,0,2.25-1.86,4.76,4.76,0,0,0,.78-2.66,4.35,4.35,0,0,0-.63-2.33A5.11,5.11,0,0,0,108.83,24.67Z"/><path class="cls-1" d="M126.27,19.27a2.18,2.18,0,0,0-1.28-1.2,2.1,2.1,0,0,0-2.9,1.13l-3.24,7.31-3.7-7.36A2.25,2.25,0,0,0,113.94,18a2.22,2.22,0,0,0-1.66.05,2.26,2.26,0,0,0-1.21,1.18,2,2,0,0,0,.1,1.79l5.5,10.44-2.34,5.27a2.21,2.21,0,0,0-.14,1.71,2.27,2.27,0,0,0,1.27,1.24,2.62,2.62,0,0,0,1,.23,2,2,0,0,0,1.91-1.38L126.15,21A2.15,2.15,0,0,0,126.27,19.27Z"/><path class="cls-3" d="M143.71,13.45a2.24,2.24,0,0,0-2.19-1.54,2.29,2.29,0,0,0-2.17,1.5l-7.14,17.06a2.32,2.32,0,0,0,.14,2.24,2.2,2.2,0,0,0,1.94,1.08,2.41,2.41,0,0,0,1.21-.34,2.32,2.32,0,0,0,.94-1.1l1.2-2.94h7.78l1.18,2.93a2.31,2.31,0,0,0,2.15,1.45,2.25,2.25,0,0,0,1.95-1,2.35,2.35,0,0,0,.17-2.22Zm-4.35,11.77,2.2-5.39,2.17,5.39Z"/><path class="cls-3" d="M163.93,18.83a8.33,8.33,0,0,0-8.17,0,7.8,7.8,0,0,0-2.86,2.9,8.41,8.41,0,0,0-1.07,4.11V37.45a2.3,2.3,0,1,0,4.6,0V32.77a8.06,8.06,0,0,0,.71.39,7,7,0,0,0,3.2.73,7.12,7.12,0,0,0,3.87-1.08,7.57,7.57,0,0,0,2.68-2.9,8.56,8.56,0,0,0,1-4.07,8.18,8.18,0,0,0-1.06-4.12A8,8,0,0,0,163.93,18.83Zm-7.14,9a4,4,0,0,1-.46-1.95,4.1,4.1,0,0,1,.46-2,3.43,3.43,0,0,1,1.26-1.33,3.58,3.58,0,0,1,3.58,0,3.54,3.54,0,0,1,1.26,1.34,4.32,4.32,0,0,1,0,3.92,3.51,3.51,0,0,1-1.26,1.33,3.55,3.55,0,0,1-3.58,0A3.36,3.36,0,0,1,156.79,27.79Z"/><path class="cls-3" d="M181.6,18.83a8,8,0,0,0-4.1-1.07,7.83,7.83,0,0,0-6.93,4,8.41,8.41,0,0,0-1.07,4.11V37.45a2.25,2.25,0,0,0,2.3,2.3,2.25,2.25,0,0,0,2.3-2.3V32.77a7.87,7.87,0,0,0,.7.39,7.45,7.45,0,0,0,7.08-.35,7.57,7.57,0,0,0,2.68-2.9,8.56,8.56,0,0,0,1-4.07,8.09,8.09,0,0,0-1.07-4.12A7.85,7.85,0,0,0,181.6,18.83Zm-7.14,9a4,4,0,0,1-.47-1.95,4.11,4.11,0,0,1,.47-2,3.48,3.48,0,0,1,1.25-1.33,3.6,3.6,0,0,1,3.59,0,3.54,3.54,0,0,1,1.26,1.34,4.32,4.32,0,0,1,0,3.92,3.46,3.46,0,0,1-1.27,1.33,3.55,3.55,0,0,1-3.58,0A3.41,3.41,0,0,1,174.46,27.79Z"/><path class="cls-3" d="M199,26.39a5.11,5.11,0,0,0-2-1.72,12.38,12.38,0,0,0-3.28-1.06,11,11,0,0,1-1.91-.52,1.37,1.37,0,0,1-.5-.28.51.51,0,0,1-.08-.28c0-.05,0-.12.22-.22a4.57,4.57,0,0,1,2.86-.1,2.48,2.48,0,0,1,1,.62,2.84,2.84,0,0,0,1.45.71,2.27,2.27,0,0,0,1.74-.36,2,2,0,0,0,.84-1.5,2.13,2.13,0,0,0-.56-1.54,6.16,6.16,0,0,0-2.45-1.77,8.94,8.94,0,0,0-3.36-.61,8.41,8.41,0,0,0-2.83.48,5.54,5.54,0,0,0-2.37,1.55,4.06,4.06,0,0,0-1,2.82,4.14,4.14,0,0,0,1.5,3.24,8.79,8.79,0,0,0,4.21,1.76,5.79,5.79,0,0,1,2.31.74c.34.24.33.41.33.49s0,.23-.33.43a3.36,3.36,0,0,1-1.73.33,4.32,4.32,0,0,1-1.72-.33,3.07,3.07,0,0,1-1.06-.68,2.38,2.38,0,0,0-1.46-.75,2.3,2.3,0,0,0-1.74.54,2.24,2.24,0,0,0-.88,1.52,2.09,2.09,0,0,0,.61,1.76,7.1,7.1,0,0,0,2.72,1.62,10.48,10.48,0,0,0,3.63.61,8.22,8.22,0,0,0,3.44-.65,5.28,5.28,0,0,0,2.25-1.86,4.77,4.77,0,0,0,.79-2.66A4.36,4.36,0,0,0,199,26.39Z"/></g></g></svg>