<svg xmlns="http://www.w3.org/2000/svg" viewBox="0 0 351.53 355.91"><defs><style>.cls-1{fill:#00a651;}.cls-2{fill:#74c592;}.cls-3{fill:#1c75bc;}</style></defs><g id="Layer_2" data-name="Layer 2"><g id="Layer_6" data-name="Layer 6"><path class="cls-1" d="M243.72,28a7.51,7.51,0,0,0-.38-13.64A178.46,178.46,0,0,0,.29,134.6a7.51,7.51,0,0,0,10.61,8.57l82.88-41h0Z"/><path class="cls-1" d="M10.84,212.84a7.51,7.51,0,0,0-10.6,8.59,178.46,178.46,0,0,0,243.14,120.1,7.51,7.51,0,0,0,.37-13.64l-82.91-40.95h0Z"/><path class="cls-2" d="M82.32,134.61,9.68,170.55a8,8,0,0,0,0,14.24l72.64,35.94h0a7.94,7.94,0,0,0,11.46-7.12V141.73A7.94,7.94,0,0,0,82.32,134.61Z"/><path class="cls-3" d="M274.28,315.71a13.48,13.48,0,0,0,14.74-1.8,178.3,178.3,0,0,0-1-272,13.49,13.49,0,0,0-14.68-1.75l-148,73.23a13.52,13.52,0,0,0-7.52,12.12V229.89A13.51,13.51,0,0,0,125.3,242Z"/></g></g></svg>