<?xml version="1.0" encoding="utf-8"?>
<!-- Generator: Adobe Illustrator 26.0.3, SVG Export Plug-In . SVG Version: 6.00 Build 0)  -->
<svg version="1.1" id="Layer_1" xmlns="http://www.w3.org/2000/svg" xmlns:xlink="http://www.w3.org/1999/xlink" x="0px" y="0px"
	 viewBox="0 0 511.4 510.5" style="enable-background:new 0 0 511.4 510.5;" xml:space="preserve">
<style type="text/css">
	.st0{fill:#0E76BC;}
</style>
<circle class="st0" cx="492" cy="255.2" r="1.4"/>
<circle class="st0" cx="492" cy="237.1" r="1.3"/>
<circle class="st0" cx="492" cy="219" r="1.1"/>
<circle class="st0" cx="492" cy="200.8" r="1"/>
<circle class="st0" cx="492" cy="182.7" r="0.9"/>
<circle class="st0" cx="492" cy="164.5" r="0.8"/>
<circle class="st0" cx="492" cy="146.4" r="0.7"/>
<circle class="st0" cx="492" cy="128.2" r="0.7"/>
<circle class="st0" cx="492" cy="110.1" r="0.6"/>
<circle class="st0" cx="492" cy="92" r="0.5"/>
<circle class="st0" cx="492" cy="73.8" r="0.5"/>
<circle class="st0" cx="492" cy="55.7" r="0.4"/>
<circle class="st0" cx="492" cy="37.5" r="0.4"/>
<circle class="st0" cx="255.6" cy="19.4" r="1.4"/>
<circle class="st0" cx="273.8" cy="19.4" r="1.3"/>
<circle class="st0" cx="292" cy="19.4" r="1.1"/>
<circle class="st0" cx="310.1" cy="19.4" r="1"/>
<circle class="st0" cx="328.3" cy="19.4" r="0.9"/>
<circle class="st0" cx="346.5" cy="19.4" r="0.8"/>
<circle class="st0" cx="364.7" cy="19.4" r="0.7"/>
<circle class="st0" cx="382.9" cy="19.4" r="0.7"/>
<circle class="st0" cx="401.1" cy="19.4" r="0.6"/>
<circle class="st0" cx="419.2" cy="19.4" r="0.5"/>
<circle class="st0" cx="437.4" cy="19.4" r="0.5"/>
<circle class="st0" cx="455.6" cy="19.4" r="0.4"/>
<circle class="st0" cx="473.8" cy="19.4" r="0.4"/>
<circle class="st0" cx="492" cy="19.4" r="0.4"/>
<circle class="st0" cx="492" cy="273.4" r="1.3"/>
<circle class="st0" cx="492" cy="291.5" r="1.1"/>
<circle class="st0" cx="492" cy="309.7" r="1"/>
<circle class="st0" cx="492" cy="327.8" r="0.9"/>
<circle class="st0" cx="492" cy="346" r="0.8"/>
<circle class="st0" cx="492" cy="364.1" r="0.7"/>
<circle class="st0" cx="492" cy="382.2" r="0.7"/>
<circle class="st0" cx="492" cy="400.4" r="0.6"/>
<circle class="st0" cx="492" cy="418.5" r="0.5"/>
<circle class="st0" cx="492" cy="436.7" r="0.5"/>
<circle class="st0" cx="492" cy="454.8" r="0.4"/>
<circle class="st0" cx="492" cy="473" r="0.4"/>
<circle class="st0" cx="255.6" cy="491.1" r="1.4"/>
<circle class="st0" cx="273.8" cy="491.1" r="1.3"/>
<circle class="st0" cx="292" cy="491.1" r="1.1"/>
<circle class="st0" cx="310.1" cy="491.1" r="1"/>
<circle class="st0" cx="328.3" cy="491.1" r="0.9"/>
<circle class="st0" cx="346.5" cy="491.1" r="0.8"/>
<circle class="st0" cx="364.7" cy="491.1" r="0.7"/>
<circle class="st0" cx="382.9" cy="491.1" r="0.7"/>
<circle class="st0" cx="401.1" cy="491.1" r="0.6"/>
<circle class="st0" cx="419.2" cy="491.1" r="0.5"/>
<circle class="st0" cx="437.4" cy="491.1" r="0.5"/>
<circle class="st0" cx="455.6" cy="491.1" r="0.4"/>
<circle class="st0" cx="473.8" cy="491.1" r="0.4"/>
<circle class="st0" cx="492" cy="491.1" r="0.4"/>
<circle class="st0" cx="19.5" cy="255.2" r="1.4"/>
<circle class="st0" cx="19.5" cy="273.4" r="1.3"/>
<circle class="st0" cx="19.5" cy="291.5" r="1.1"/>
<circle class="st0" cx="19.5" cy="309.7" r="1"/>
<circle class="st0" cx="19.5" cy="327.8" r="0.9"/>
<circle class="st0" cx="19.5" cy="346" r="0.8"/>
<circle class="st0" cx="19.5" cy="364.1" r="0.7"/>
<circle class="st0" cx="19.5" cy="382.2" r="0.7"/>
<circle class="st0" cx="19.5" cy="400.4" r="0.6"/>
<circle class="st0" cx="19.5" cy="418.5" r="0.5"/>
<circle class="st0" cx="19.5" cy="436.7" r="0.5"/>
<circle class="st0" cx="19.5" cy="454.8" r="0.4"/>
<circle class="st0" cx="19.5" cy="473" r="0.4"/>
<circle class="st0" cx="237.6" cy="491.1" r="1.3"/>
<circle class="st0" cx="219.5" cy="491.1" r="1.1"/>
<circle class="st0" cx="201.3" cy="491.1" r="1"/>
<circle class="st0" cx="183.1" cy="491.1" r="0.9"/>
<circle class="st0" cx="164.9" cy="491.1" r="0.8"/>
<circle class="st0" cx="146.7" cy="491.1" r="0.7"/>
<circle class="st0" cx="128.5" cy="491.1" r="0.7"/>
<circle class="st0" cx="110.4" cy="491.1" r="0.6"/>
<circle class="st0" cx="92.2" cy="491.1" r="0.5"/>
<circle class="st0" cx="74" cy="491.1" r="0.5"/>
<circle class="st0" cx="55.8" cy="491.1" r="0.4"/>
<circle class="st0" cx="37.6" cy="491.1" r="0.4"/>
<circle class="st0" cx="19.5" cy="491.1" r="0.4"/>
<circle class="st0" cx="19.5" cy="237.1" r="1.3"/>
<circle class="st0" cx="19.5" cy="219" r="1.1"/>
<circle class="st0" cx="19.5" cy="200.8" r="1"/>
<circle class="st0" cx="19.5" cy="182.7" r="0.9"/>
<circle class="st0" cx="19.5" cy="164.5" r="0.8"/>
<circle class="st0" cx="19.5" cy="146.4" r="0.7"/>
<circle class="st0" cx="19.5" cy="128.3" r="0.7"/>
<circle class="st0" cx="19.5" cy="110.1" r="0.6"/>
<circle class="st0" cx="19.5" cy="92" r="0.5"/>
<circle class="st0" cx="19.5" cy="73.8" r="0.5"/>
<circle class="st0" cx="19.5" cy="55.7" r="0.4"/>
<circle class="st0" cx="19.5" cy="37.5" r="0.4"/>
<circle class="st0" cx="237.6" cy="19.4" r="1.3"/>
<circle class="st0" cx="219.5" cy="19.4" r="1.1"/>
<circle class="st0" cx="201.3" cy="19.4" r="1"/>
<circle class="st0" cx="183.1" cy="19.4" r="0.9"/>
<circle class="st0" cx="164.9" cy="19.4" r="0.8"/>
<circle class="st0" cx="146.7" cy="19.4" r="0.7"/>
<circle class="st0" cx="128.5" cy="19.4" r="0.7"/>
<circle class="st0" cx="110.4" cy="19.4" r="0.6"/>
<circle class="st0" cx="92.2" cy="19.4" r="0.5"/>
<circle class="st0" cx="74" cy="19.4" r="0.5"/>
<circle class="st0" cx="55.8" cy="19.4" r="0.4"/>
<circle class="st0" cx="37.6" cy="19.4" r="0.4"/>
<circle class="st0" cx="19.5" cy="19.4" r="0.4"/>
<circle class="st0" cx="473.8" cy="255.2" r="1.6"/>
<circle class="st0" cx="473.8" cy="237.1" r="1.4"/>
<circle class="st0" cx="473.8" cy="219" r="1.3"/>
<circle class="st0" cx="473.8" cy="200.8" r="1.1"/>
<circle class="st0" cx="473.8" cy="182.7" r="1"/>
<circle class="st0" cx="473.8" cy="164.5" r="0.9"/>
<circle class="st0" cx="473.8" cy="146.4" r="0.8"/>
<circle class="st0" cx="473.8" cy="128.2" r="0.7"/>
<circle class="st0" cx="473.8" cy="110.1" r="0.7"/>
<circle class="st0" cx="473.8" cy="92" r="0.6"/>
<circle class="st0" cx="473.8" cy="73.8" r="0.5"/>
<circle class="st0" cx="473.8" cy="55.7" r="0.5"/>
<circle class="st0" cx="255.6" cy="37.5" r="1.6"/>
<circle class="st0" cx="273.8" cy="37.5" r="1.4"/>
<circle class="st0" cx="292" cy="37.5" r="1.3"/>
<circle class="st0" cx="310.1" cy="37.5" r="1.1"/>
<circle class="st0" cx="328.3" cy="37.5" r="1"/>
<circle class="st0" cx="346.5" cy="37.5" r="0.9"/>
<circle class="st0" cx="364.7" cy="37.5" r="0.8"/>
<circle class="st0" cx="382.9" cy="37.5" r="0.7"/>
<circle class="st0" cx="401.1" cy="37.5" r="0.7"/>
<circle class="st0" cx="419.2" cy="37.5" r="0.6"/>
<circle class="st0" cx="437.4" cy="37.5" r="0.5"/>
<circle class="st0" cx="455.6" cy="37.5" r="0.5"/>
<circle class="st0" cx="473.8" cy="37.5" r="0.4"/>
<circle class="st0" cx="473.8" cy="273.4" r="1.4"/>
<circle class="st0" cx="473.8" cy="291.5" r="1.3"/>
<circle class="st0" cx="473.8" cy="309.7" r="1.1"/>
<circle class="st0" cx="473.8" cy="327.8" r="1"/>
<circle class="st0" cx="473.8" cy="346" r="0.9"/>
<circle class="st0" cx="473.8" cy="364.1" r="0.8"/>
<circle class="st0" cx="473.8" cy="382.2" r="0.7"/>
<circle class="st0" cx="473.8" cy="400.4" r="0.7"/>
<circle class="st0" cx="473.8" cy="418.5" r="0.6"/>
<circle class="st0" cx="473.8" cy="436.7" r="0.5"/>
<circle class="st0" cx="473.8" cy="454.8" r="0.5"/>
<circle class="st0" cx="255.6" cy="473" r="1.6"/>
<circle class="st0" cx="273.8" cy="473" r="1.4"/>
<circle class="st0" cx="292" cy="473" r="1.3"/>
<circle class="st0" cx="310.1" cy="473" r="1.1"/>
<circle class="st0" cx="328.3" cy="473" r="1"/>
<circle class="st0" cx="346.5" cy="473" r="0.9"/>
<circle class="st0" cx="364.7" cy="473" r="0.8"/>
<circle class="st0" cx="382.9" cy="473" r="0.7"/>
<circle class="st0" cx="401.1" cy="473" r="0.7"/>
<circle class="st0" cx="419.2" cy="473" r="0.6"/>
<circle class="st0" cx="437.4" cy="473" r="0.5"/>
<circle class="st0" cx="455.6" cy="473" r="0.5"/>
<circle class="st0" cx="473.8" cy="473" r="0.4"/>
<circle class="st0" cx="37.6" cy="255.2" r="1.6"/>
<circle class="st0" cx="37.6" cy="273.4" r="1.4"/>
<circle class="st0" cx="37.6" cy="291.5" r="1.3"/>
<circle class="st0" cx="37.6" cy="309.7" r="1.1"/>
<circle class="st0" cx="37.6" cy="327.8" r="1"/>
<circle class="st0" cx="37.6" cy="346" r="0.9"/>
<circle class="st0" cx="37.6" cy="364.1" r="0.8"/>
<circle class="st0" cx="37.6" cy="382.2" r="0.7"/>
<circle class="st0" cx="37.6" cy="400.4" r="0.7"/>
<circle class="st0" cx="37.6" cy="418.5" r="0.6"/>
<circle class="st0" cx="37.6" cy="436.7" r="0.5"/>
<circle class="st0" cx="37.6" cy="454.8" r="0.5"/>
<circle class="st0" cx="237.6" cy="473" r="1.4"/>
<circle class="st0" cx="219.5" cy="473" r="1.3"/>
<circle class="st0" cx="201.3" cy="473" r="1.1"/>
<circle class="st0" cx="183.1" cy="473" r="1"/>
<circle class="st0" cx="164.9" cy="473" r="0.9"/>
<circle class="st0" cx="146.7" cy="473" r="0.8"/>
<ellipse transform="matrix(7.088843e-02 -0.9975 0.9975 7.088843e-02 -352.3421 567.6492)" class="st0" cx="128.5" cy="473" rx="0.7" ry="0.7"/>
<circle class="st0" cx="110.4" cy="473" r="0.7"/>
<circle class="st0" cx="92.2" cy="473" r="0.6"/>
<circle class="st0" cx="74" cy="473" r="0.5"/>
<circle class="st0" cx="55.8" cy="473" r="0.5"/>
<circle class="st0" cx="37.6" cy="473" r="0.4"/>
<circle class="st0" cx="37.6" cy="237.1" r="1.4"/>
<circle class="st0" cx="37.6" cy="219" r="1.3"/>
<circle class="st0" cx="37.6" cy="200.8" r="1.1"/>
<circle class="st0" cx="37.6" cy="182.7" r="1"/>
<circle class="st0" cx="37.6" cy="164.5" r="0.9"/>
<circle class="st0" cx="37.6" cy="146.4" r="0.8"/>
<circle class="st0" cx="37.6" cy="128.3" r="0.7"/>
<circle class="st0" cx="37.6" cy="110.1" r="0.7"/>
<circle class="st0" cx="37.6" cy="92" r="0.6"/>
<circle class="st0" cx="37.6" cy="73.8" r="0.5"/>
<circle class="st0" cx="37.6" cy="55.7" r="0.5"/>
<circle class="st0" cx="237.6" cy="37.5" r="1.4"/>
<circle class="st0" cx="219.5" cy="37.5" r="1.3"/>
<circle class="st0" cx="201.3" cy="37.5" r="1.1"/>
<circle class="st0" cx="183.1" cy="37.5" r="1"/>
<circle class="st0" cx="164.9" cy="37.5" r="0.9"/>
<circle class="st0" cx="146.7" cy="37.5" r="0.8"/>
<circle class="st0" cx="128.5" cy="37.5" r="0.7"/>
<circle class="st0" cx="110.4" cy="37.5" r="0.7"/>
<circle class="st0" cx="92.2" cy="37.5" r="0.6"/>
<circle class="st0" cx="74" cy="37.5" r="0.5"/>
<circle class="st0" cx="55.8" cy="37.5" r="0.5"/>
<circle class="st0" cx="37.6" cy="37.5" r="0.4"/>
<ellipse class="st0" cx="455.6" cy="255.2" rx="1.7" ry="1.7"/>
<circle class="st0" cx="455.6" cy="237.1" r="1.6"/>
<circle class="st0" cx="455.6" cy="219" r="1.4"/>
<circle class="st0" cx="455.6" cy="200.8" r="1.3"/>
<circle class="st0" cx="455.6" cy="182.7" r="1.1"/>
<circle class="st0" cx="455.6" cy="164.5" r="1"/>
<circle class="st0" cx="455.6" cy="146.4" r="0.9"/>
<circle class="st0" cx="455.6" cy="128.2" r="0.8"/>
<circle class="st0" cx="455.6" cy="110.1" r="0.7"/>
<circle class="st0" cx="455.6" cy="92" r="0.7"/>
<circle class="st0" cx="455.6" cy="73.8" r="0.6"/>
<ellipse transform="matrix(0.2298 -0.9732 0.9732 0.2298 142.675 291.6575)" class="st0" cx="255.6" cy="55.7" rx="1.7" ry="1.7"/>
<circle class="st0" cx="273.8" cy="55.7" r="1.6"/>
<circle class="st0" cx="292" cy="55.7" r="1.4"/>
<circle class="st0" cx="310.1" cy="55.7" r="1.3"/>
<circle class="st0" cx="328.3" cy="55.7" r="1.1"/>
<circle class="st0" cx="346.5" cy="55.7" r="1"/>
<circle class="st0" cx="364.7" cy="55.7" r="0.9"/>
<circle class="st0" cx="382.9" cy="55.7" r="0.8"/>
<circle class="st0" cx="401.1" cy="55.7" r="0.7"/>
<circle class="st0" cx="419.2" cy="55.7" r="0.7"/>
<circle class="st0" cx="437.4" cy="55.7" r="0.6"/>
<circle class="st0" cx="455.6" cy="55.7" r="0.5"/>
<circle class="st0" cx="455.6" cy="273.4" r="1.6"/>
<circle class="st0" cx="455.6" cy="291.5" r="1.4"/>
<circle class="st0" cx="455.6" cy="309.7" r="1.3"/>
<circle class="st0" cx="455.6" cy="327.8" r="1.1"/>
<circle class="st0" cx="455.6" cy="346" r="1"/>
<circle class="st0" cx="455.6" cy="364.1" r="0.9"/>
<circle class="st0" cx="455.6" cy="382.2" r="0.8"/>
<circle class="st0" cx="455.6" cy="400.4" r="0.7"/>
<circle class="st0" cx="455.6" cy="418.5" r="0.7"/>
<circle class="st0" cx="455.6" cy="436.7" r="0.6"/>
<ellipse class="st0" cx="255.6" cy="454.8" rx="1.7" ry="1.7"/>
<circle class="st0" cx="273.8" cy="454.8" r="1.6"/>
<circle class="st0" cx="292" cy="454.8" r="1.4"/>
<circle class="st0" cx="310.1" cy="454.8" r="1.3"/>
<circle class="st0" cx="328.3" cy="454.8" r="1.1"/>
<circle class="st0" cx="346.5" cy="454.8" r="1"/>
<circle class="st0" cx="364.7" cy="454.8" r="0.9"/>
<circle class="st0" cx="382.9" cy="454.8" r="0.8"/>
<circle class="st0" cx="401.1" cy="454.8" r="0.7"/>
<circle class="st0" cx="419.2" cy="454.8" r="0.7"/>
<circle class="st0" cx="437.4" cy="454.8" r="0.6"/>
<circle class="st0" cx="455.6" cy="454.8" r="0.5"/>
<ellipse class="st0" cx="55.8" cy="255.2" rx="1.7" ry="1.7"/>
<circle class="st0" cx="55.8" cy="273.4" r="1.6"/>
<circle class="st0" cx="55.8" cy="291.5" r="1.4"/>
<circle class="st0" cx="55.8" cy="309.7" r="1.3"/>
<circle class="st0" cx="55.8" cy="327.8" r="1.1"/>
<circle class="st0" cx="55.8" cy="346" r="1"/>
<circle class="st0" cx="55.8" cy="364.1" r="0.9"/>
<circle class="st0" cx="55.8" cy="382.2" r="0.8"/>
<circle class="st0" cx="55.8" cy="400.4" r="0.7"/>
<circle class="st0" cx="55.8" cy="418.5" r="0.7"/>
<circle class="st0" cx="55.8" cy="436.7" r="0.6"/>
<circle class="st0" cx="237.6" cy="454.8" r="1.6"/>
<circle class="st0" cx="219.5" cy="454.8" r="1.4"/>
<circle class="st0" cx="201.3" cy="454.8" r="1.3"/>
<circle class="st0" cx="183.1" cy="454.8" r="1.1"/>
<circle class="st0" cx="164.9" cy="454.8" r="1"/>
<circle class="st0" cx="146.7" cy="454.8" r="0.9"/>
<circle class="st0" cx="128.5" cy="454.8" r="0.8"/>
<circle class="st0" cx="110.4" cy="454.8" r="0.7"/>
<circle class="st0" cx="92.2" cy="454.8" r="0.7"/>
<circle class="st0" cx="74" cy="454.8" r="0.6"/>
<circle class="st0" cx="55.8" cy="454.8" r="0.5"/>
<circle class="st0" cx="55.8" cy="237.1" r="1.6"/>
<circle class="st0" cx="55.8" cy="219" r="1.4"/>
<circle class="st0" cx="55.8" cy="200.8" r="1.3"/>
<circle class="st0" cx="55.8" cy="182.7" r="1.1"/>
<circle class="st0" cx="55.8" cy="164.5" r="1"/>
<circle class="st0" cx="55.8" cy="146.4" r="0.9"/>
<circle class="st0" cx="55.8" cy="128.3" r="0.8"/>
<circle class="st0" cx="55.8" cy="110.1" r="0.7"/>
<circle class="st0" cx="55.8" cy="92" r="0.7"/>
<circle class="st0" cx="55.8" cy="73.8" r="0.6"/>
<circle class="st0" cx="237.6" cy="55.7" r="1.6"/>
<circle class="st0" cx="219.5" cy="55.7" r="1.4"/>
<circle class="st0" cx="201.3" cy="55.7" r="1.3"/>
<circle class="st0" cx="183.1" cy="55.7" r="1.1"/>
<circle class="st0" cx="164.9" cy="55.7" r="1"/>
<circle class="st0" cx="146.7" cy="55.7" r="0.9"/>
<circle class="st0" cx="128.5" cy="55.7" r="0.8"/>
<circle class="st0" cx="110.4" cy="55.7" r="0.7"/>
<circle class="st0" cx="92.2" cy="55.7" r="0.7"/>
<circle class="st0" cx="74" cy="55.7" r="0.6"/>
<circle class="st0" cx="55.8" cy="55.7" r="0.5"/>
<ellipse class="st0" cx="437.4" cy="255.2" rx="1.9" ry="1.9"/>
<ellipse class="st0" cx="437.4" cy="237.1" rx="1.7" ry="1.7"/>
<circle class="st0" cx="437.4" cy="219" r="1.6"/>
<circle class="st0" cx="437.4" cy="200.8" r="1.4"/>
<circle class="st0" cx="437.4" cy="182.7" r="1.3"/>
<circle class="st0" cx="437.4" cy="164.5" r="1.1"/>
<circle class="st0" cx="437.4" cy="146.4" r="1"/>
<circle class="st0" cx="437.4" cy="128.2" r="0.9"/>
<circle class="st0" cx="437.4" cy="110.1" r="0.8"/>
<circle class="st0" cx="437.4" cy="92" r="0.7"/>
<ellipse transform="matrix(0.1602 -0.9871 0.9871 0.1602 141.7808 314.3033)" class="st0" cx="255.6" cy="73.8" rx="1.9" ry="1.9"/>
<ellipse class="st0" cx="273.8" cy="73.8" rx="1.7" ry="1.7"/>
<circle class="st0" cx="292" cy="73.8" r="1.6"/>
<circle class="st0" cx="310.1" cy="73.8" r="1.4"/>
<circle class="st0" cx="328.3" cy="73.8" r="1.3"/>
<circle class="st0" cx="346.5" cy="73.8" r="1.1"/>
<circle class="st0" cx="364.7" cy="73.8" r="1"/>
<circle class="st0" cx="382.9" cy="73.8" r="0.9"/>
<circle class="st0" cx="401.1" cy="73.8" r="0.8"/>
<circle class="st0" cx="419.2" cy="73.8" r="0.7"/>
<circle class="st0" cx="437.4" cy="73.8" r="0.7"/>
<ellipse class="st0" cx="437.4" cy="273.4" rx="1.7" ry="1.7"/>
<circle class="st0" cx="437.4" cy="291.5" r="1.6"/>
<circle class="st0" cx="437.4" cy="309.7" r="1.4"/>
<circle class="st0" cx="437.4" cy="327.8" r="1.3"/>
<circle class="st0" cx="437.4" cy="346" r="1.1"/>
<circle class="st0" cx="437.4" cy="364.1" r="1"/>
<circle class="st0" cx="437.4" cy="382.2" r="0.9"/>
<circle class="st0" cx="437.4" cy="400.4" r="0.8"/>
<circle class="st0" cx="437.4" cy="418.5" r="0.7"/>
<ellipse class="st0" cx="255.6" cy="436.7" rx="1.9" ry="1.9"/>
<ellipse class="st0" cx="273.8" cy="436.7" rx="1.7" ry="1.7"/>
<circle class="st0" cx="292" cy="436.7" r="1.6"/>
<circle class="st0" cx="310.1" cy="436.7" r="1.4"/>
<circle class="st0" cx="328.3" cy="436.7" r="1.3"/>
<circle class="st0" cx="346.5" cy="436.7" r="1.1"/>
<circle class="st0" cx="364.7" cy="436.7" r="1"/>
<circle class="st0" cx="382.9" cy="436.7" r="0.9"/>
<circle class="st0" cx="401.1" cy="436.7" r="0.8"/>
<circle class="st0" cx="419.2" cy="436.7" r="0.7"/>
<circle class="st0" cx="437.4" cy="436.7" r="0.7"/>
<ellipse class="st0" cx="74" cy="255.2" rx="1.9" ry="1.9"/>
<ellipse class="st0" cx="74" cy="273.4" rx="1.7" ry="1.7"/>
<circle class="st0" cx="74" cy="291.5" r="1.6"/>
<circle class="st0" cx="74" cy="309.7" r="1.4"/>
<circle class="st0" cx="74" cy="327.8" r="1.3"/>
<circle class="st0" cx="74" cy="346" r="1.1"/>
<circle class="st0" cx="74" cy="364.1" r="1"/>
<circle class="st0" cx="74" cy="382.2" r="0.9"/>
<circle class="st0" cx="74" cy="400.4" r="0.8"/>
<circle class="st0" cx="74" cy="418.5" r="0.7"/>
<ellipse class="st0" cx="237.6" cy="436.7" rx="1.7" ry="1.7"/>
<circle class="st0" cx="219.5" cy="436.7" r="1.6"/>
<circle class="st0" cx="201.3" cy="436.7" r="1.4"/>
<circle class="st0" cx="183.1" cy="436.7" r="1.3"/>
<circle class="st0" cx="164.9" cy="436.7" r="1.1"/>
<circle class="st0" cx="146.7" cy="436.7" r="1"/>
<circle class="st0" cx="128.5" cy="436.7" r="0.9"/>
<circle class="st0" cx="110.4" cy="436.7" r="0.8"/>
<circle class="st0" cx="92.2" cy="436.7" r="0.7"/>
<circle class="st0" cx="74" cy="436.7" r="0.7"/>
<ellipse class="st0" cx="74" cy="237.1" rx="1.7" ry="1.7"/>
<circle class="st0" cx="74" cy="219" r="1.6"/>
<circle class="st0" cx="74" cy="200.8" r="1.4"/>
<circle class="st0" cx="74" cy="182.7" r="1.3"/>
<circle class="st0" cx="74" cy="164.5" r="1.1"/>
<circle class="st0" cx="74" cy="146.4" r="1"/>
<circle class="st0" cx="74" cy="128.3" r="0.9"/>
<circle class="st0" cx="74" cy="110.1" r="0.8"/>
<circle class="st0" cx="74" cy="92" r="0.7"/>
<ellipse class="st0" cx="237.6" cy="73.8" rx="1.7" ry="1.7"/>
<circle class="st0" cx="219.5" cy="73.8" r="1.6"/>
<circle class="st0" cx="201.3" cy="73.8" r="1.4"/>
<circle class="st0" cx="183.1" cy="73.8" r="1.3"/>
<circle class="st0" cx="164.9" cy="73.8" r="1.1"/>
<circle class="st0" cx="146.7" cy="73.8" r="1"/>
<circle class="st0" cx="128.5" cy="73.8" r="0.9"/>
<circle class="st0" cx="110.4" cy="73.8" r="0.8"/>
<circle class="st0" cx="92.2" cy="73.8" r="0.7"/>
<circle class="st0" cx="74" cy="73.8" r="0.7"/>
<ellipse class="st0" cx="419.2" cy="255.2" rx="2.1" ry="2.1"/>
<ellipse class="st0" cx="419.2" cy="237.1" rx="1.9" ry="1.9"/>
<ellipse class="st0" cx="419.2" cy="219" rx="1.7" ry="1.7"/>
<circle class="st0" cx="419.2" cy="200.8" r="1.6"/>
<circle class="st0" cx="419.2" cy="182.7" r="1.4"/>
<circle class="st0" cx="419.2" cy="164.5" r="1.3"/>
<circle class="st0" cx="419.2" cy="146.4" r="1.1"/>
<circle class="st0" cx="419.2" cy="128.2" r="1"/>
<circle class="st0" cx="419.2" cy="110.1" r="0.9"/>
<ellipse class="st0" cx="255.6" cy="92" rx="2.1" ry="2.1"/>
<ellipse class="st0" cx="273.8" cy="92" rx="1.9" ry="1.9"/>
<ellipse class="st0" cx="292" cy="92" rx="1.7" ry="1.7"/>
<circle class="st0" cx="310.1" cy="92" r="1.6"/>
<circle class="st0" cx="328.3" cy="92" r="1.4"/>
<circle class="st0" cx="346.5" cy="92" r="1.3"/>
<circle class="st0" cx="364.7" cy="92" r="1.1"/>
<circle class="st0" cx="382.9" cy="92" r="1"/>
<circle class="st0" cx="401.1" cy="92" r="0.9"/>
<circle class="st0" cx="419.2" cy="92" r="0.8"/>
<ellipse class="st0" cx="419.2" cy="273.4" rx="1.9" ry="1.9"/>
<ellipse class="st0" cx="419.2" cy="291.5" rx="1.7" ry="1.7"/>
<circle class="st0" cx="419.2" cy="309.7" r="1.6"/>
<circle class="st0" cx="419.2" cy="327.8" r="1.4"/>
<circle class="st0" cx="419.2" cy="346" r="1.3"/>
<circle class="st0" cx="419.2" cy="364.1" r="1.1"/>
<circle class="st0" cx="419.2" cy="382.2" r="1"/>
<circle class="st0" cx="419.2" cy="400.4" r="0.9"/>
<ellipse class="st0" cx="255.6" cy="418.5" rx="2.1" ry="2.1"/>
<ellipse class="st0" cx="273.8" cy="418.5" rx="1.9" ry="1.9"/>
<ellipse class="st0" cx="292" cy="418.5" rx="1.7" ry="1.7"/>
<circle class="st0" cx="310.1" cy="418.5" r="1.6"/>
<circle class="st0" cx="328.3" cy="418.5" r="1.4"/>
<circle class="st0" cx="346.5" cy="418.5" r="1.3"/>
<circle class="st0" cx="364.7" cy="418.5" r="1.1"/>
<circle class="st0" cx="382.9" cy="418.5" r="1"/>
<circle class="st0" cx="401.1" cy="418.5" r="0.9"/>
<circle class="st0" cx="419.2" cy="418.5" r="0.8"/>
<ellipse class="st0" cx="92.2" cy="255.2" rx="2.1" ry="2.1"/>
<ellipse class="st0" cx="92.2" cy="273.4" rx="1.9" ry="1.9"/>
<ellipse class="st0" cx="92.2" cy="291.5" rx="1.7" ry="1.7"/>
<circle class="st0" cx="92.2" cy="309.7" r="1.6"/>
<circle class="st0" cx="92.2" cy="327.8" r="1.4"/>
<circle class="st0" cx="92.2" cy="346" r="1.3"/>
<circle class="st0" cx="92.2" cy="364.1" r="1.1"/>
<circle class="st0" cx="92.2" cy="382.2" r="1"/>
<circle class="st0" cx="92.2" cy="400.4" r="0.9"/>
<ellipse class="st0" cx="237.6" cy="418.5" rx="1.9" ry="1.9"/>
<ellipse class="st0" cx="219.5" cy="418.5" rx="1.7" ry="1.7"/>
<circle class="st0" cx="201.3" cy="418.5" r="1.6"/>
<circle class="st0" cx="183.1" cy="418.5" r="1.4"/>
<circle class="st0" cx="164.9" cy="418.5" r="1.3"/>
<circle class="st0" cx="146.7" cy="418.5" r="1.1"/>
<ellipse transform="matrix(7.088859e-02 -0.9975 0.9975 7.088859e-02 -298.0491 517.0776)" class="st0" cx="128.5" cy="418.5" rx="1" ry="1"/>
<circle class="st0" cx="110.4" cy="418.5" r="0.9"/>
<circle class="st0" cx="92.2" cy="418.5" r="0.8"/>
<ellipse class="st0" cx="92.2" cy="237.1" rx="1.9" ry="1.9"/>
<ellipse class="st0" cx="92.2" cy="219" rx="1.7" ry="1.7"/>
<circle class="st0" cx="92.2" cy="200.8" r="1.6"/>
<circle class="st0" cx="92.2" cy="182.7" r="1.4"/>
<circle class="st0" cx="92.2" cy="164.5" r="1.3"/>
<circle class="st0" cx="92.2" cy="146.4" r="1.1"/>
<circle class="st0" cx="92.2" cy="128.3" r="1"/>
<circle class="st0" cx="92.2" cy="110.1" r="0.9"/>
<ellipse class="st0" cx="237.6" cy="92" rx="1.9" ry="1.9"/>
<ellipse class="st0" cx="219.5" cy="92" rx="1.7" ry="1.7"/>
<circle class="st0" cx="201.3" cy="92" r="1.6"/>
<circle class="st0" cx="183.1" cy="92" r="1.4"/>
<circle class="st0" cx="164.9" cy="92" r="1.3"/>
<circle class="st0" cx="146.7" cy="92" r="1.1"/>
<circle class="st0" cx="128.5" cy="92" r="1"/>
<circle class="st0" cx="110.4" cy="92" r="0.9"/>
<circle class="st0" cx="92.2" cy="92" r="0.8"/>
<ellipse class="st0" cx="401.1" cy="255.2" rx="2.4" ry="2.4"/>
<ellipse class="st0" cx="401.1" cy="237.1" rx="2.1" ry="2.1"/>
<ellipse class="st0" cx="401.1" cy="219" rx="1.9" ry="1.9"/>
<ellipse class="st0" cx="401.1" cy="200.8" rx="1.7" ry="1.7"/>
<circle class="st0" cx="401.1" cy="182.7" r="1.6"/>
<circle class="st0" cx="401.1" cy="164.5" r="1.4"/>
<circle class="st0" cx="401.1" cy="146.4" r="1.3"/>
<circle class="st0" cx="401.1" cy="128.2" r="1.1"/>
<ellipse class="st0" cx="255.6" cy="110.1" rx="2.4" ry="2.4"/>
<ellipse class="st0" cx="273.8" cy="110.1" rx="2.1" ry="2.1"/>
<ellipse class="st0" cx="292" cy="110.1" rx="1.9" ry="1.9"/>
<ellipse class="st0" cx="310.1" cy="110.1" rx="1.7" ry="1.7"/>
<circle class="st0" cx="328.3" cy="110.1" r="1.6"/>
<circle class="st0" cx="346.5" cy="110.1" r="1.4"/>
<circle class="st0" cx="364.7" cy="110.1" r="1.3"/>
<circle class="st0" cx="382.9" cy="110.1" r="1.1"/>
<circle class="st0" cx="401.1" cy="110.1" r="1"/>
<ellipse class="st0" cx="401.1" cy="273.4" rx="2.1" ry="2.1"/>
<ellipse class="st0" cx="401.1" cy="291.5" rx="1.9" ry="1.9"/>
<ellipse class="st0" cx="401.1" cy="309.7" rx="1.7" ry="1.7"/>
<circle class="st0" cx="401.1" cy="327.8" r="1.6"/>
<circle class="st0" cx="401.1" cy="346" r="1.4"/>
<circle class="st0" cx="401.1" cy="364.1" r="1.3"/>
<circle class="st0" cx="401.1" cy="382.2" r="1.1"/>
<ellipse class="st0" cx="255.6" cy="400.4" rx="2.4" ry="2.4"/>
<ellipse class="st0" cx="273.8" cy="400.4" rx="2.1" ry="2.1"/>
<ellipse class="st0" cx="292" cy="400.4" rx="1.9" ry="1.9"/>
<ellipse class="st0" cx="310.1" cy="400.4" rx="1.7" ry="1.7"/>
<circle class="st0" cx="328.3" cy="400.4" r="1.6"/>
<circle class="st0" cx="346.5" cy="400.4" r="1.4"/>
<circle class="st0" cx="364.7" cy="400.4" r="1.3"/>
<circle class="st0" cx="382.9" cy="400.4" r="1.1"/>
<circle class="st0" cx="401.1" cy="400.4" r="1"/>
<ellipse class="st0" cx="110.4" cy="255.2" rx="2.4" ry="2.4"/>
<ellipse class="st0" cx="110.4" cy="273.4" rx="2.1" ry="2.1"/>
<ellipse class="st0" cx="110.4" cy="291.5" rx="1.9" ry="1.9"/>
<ellipse class="st0" cx="110.4" cy="309.7" rx="1.7" ry="1.7"/>
<circle class="st0" cx="110.4" cy="327.8" r="1.6"/>
<circle class="st0" cx="110.4" cy="346" r="1.4"/>
<circle class="st0" cx="110.4" cy="364.1" r="1.3"/>
<circle class="st0" cx="110.4" cy="382.2" r="1.1"/>
<ellipse class="st0" cx="237.6" cy="400.4" rx="2.1" ry="2.1"/>
<ellipse class="st0" cx="219.5" cy="400.4" rx="1.9" ry="1.9"/>
<ellipse class="st0" cx="201.3" cy="400.4" rx="1.7" ry="1.7"/>
<circle class="st0" cx="183.1" cy="400.4" r="1.6"/>
<circle class="st0" cx="164.9" cy="400.4" r="1.4"/>
<circle class="st0" cx="146.7" cy="400.4" r="1.3"/>
<circle class="st0" cx="128.5" cy="400.4" r="1.1"/>
<circle class="st0" cx="110.4" cy="400.4" r="1"/>
<ellipse class="st0" cx="110.4" cy="237.1" rx="2.1" ry="2.1"/>
<ellipse class="st0" cx="110.4" cy="219" rx="1.9" ry="1.9"/>
<ellipse class="st0" cx="110.4" cy="200.8" rx="1.7" ry="1.7"/>
<circle class="st0" cx="110.4" cy="182.7" r="1.6"/>
<circle class="st0" cx="110.4" cy="164.5" r="1.4"/>
<circle class="st0" cx="110.4" cy="146.4" r="1.3"/>
<circle class="st0" cx="110.4" cy="128.3" r="1.1"/>
<ellipse class="st0" cx="237.6" cy="110.1" rx="2.1" ry="2.1"/>
<ellipse class="st0" cx="219.5" cy="110.1" rx="1.9" ry="1.9"/>
<ellipse class="st0" cx="201.3" cy="110.1" rx="1.7" ry="1.7"/>
<circle class="st0" cx="183.1" cy="110.1" r="1.6"/>
<circle class="st0" cx="164.9" cy="110.1" r="1.4"/>
<circle class="st0" cx="146.7" cy="110.1" r="1.3"/>
<circle class="st0" cx="128.5" cy="110.1" r="1.1"/>
<circle class="st0" cx="110.4" cy="110.1" r="1"/>
<ellipse class="st0" cx="382.9" cy="255.2" rx="2.6" ry="2.6"/>
<ellipse class="st0" cx="382.9" cy="237.1" rx="2.4" ry="2.4"/>
<ellipse class="st0" cx="382.9" cy="219" rx="2.1" ry="2.1"/>
<ellipse class="st0" cx="382.9" cy="200.8" rx="1.9" ry="1.9"/>
<ellipse class="st0" cx="382.9" cy="182.7" rx="1.7" ry="1.7"/>
<circle class="st0" cx="382.9" cy="164.5" r="1.6"/>
<circle class="st0" cx="382.9" cy="146.4" r="1.4"/>
<ellipse class="st0" cx="255.6" cy="128.2" rx="2.6" ry="2.6"/>
<ellipse class="st0" cx="273.8" cy="128.2" rx="2.4" ry="2.4"/>
<ellipse class="st0" cx="292" cy="128.2" rx="2.1" ry="2.1"/>
<ellipse class="st0" cx="310.1" cy="128.2" rx="1.9" ry="1.9"/>
<ellipse class="st0" cx="328.3" cy="128.2" rx="1.7" ry="1.7"/>
<circle class="st0" cx="346.5" cy="128.2" r="1.6"/>
<circle class="st0" cx="364.7" cy="128.2" r="1.4"/>
<circle class="st0" cx="382.9" cy="128.2" r="1.3"/>
<ellipse class="st0" cx="382.9" cy="273.4" rx="2.4" ry="2.4"/>
<ellipse class="st0" cx="382.9" cy="291.5" rx="2.1" ry="2.1"/>
<ellipse class="st0" cx="382.9" cy="309.7" rx="1.9" ry="1.9"/>
<ellipse class="st0" cx="382.9" cy="327.8" rx="1.7" ry="1.7"/>
<circle class="st0" cx="382.9" cy="346" r="1.6"/>
<circle class="st0" cx="382.9" cy="364.1" r="1.4"/>
<ellipse class="st0" cx="255.6" cy="382.2" rx="2.6" ry="2.6"/>
<ellipse class="st0" cx="273.8" cy="382.2" rx="2.4" ry="2.4"/>
<ellipse class="st0" cx="292" cy="382.2" rx="2.1" ry="2.1"/>
<ellipse class="st0" cx="310.1" cy="382.2" rx="1.9" ry="1.9"/>
<ellipse class="st0" cx="328.3" cy="382.2" rx="1.7" ry="1.7"/>
<circle class="st0" cx="346.5" cy="382.2" r="1.6"/>
<circle class="st0" cx="364.7" cy="382.2" r="1.4"/>
<circle class="st0" cx="382.9" cy="382.2" r="1.3"/>
<ellipse class="st0" cx="128.5" cy="255.2" rx="2.6" ry="2.6"/>
<ellipse class="st0" cx="128.5" cy="273.4" rx="2.4" ry="2.4"/>
<ellipse class="st0" cx="128.5" cy="291.5" rx="2.1" ry="2.1"/>
<ellipse class="st0" cx="128.5" cy="309.7" rx="1.9" ry="1.9"/>
<ellipse transform="matrix(7.088927e-02 -0.9975 0.9975 7.088927e-02 -207.5674 432.7977)" class="st0" cx="128.5" cy="327.8" rx="1.7" ry="1.7"/>
<circle class="st0" cx="128.5" cy="346" r="1.6"/>
<circle class="st0" cx="128.5" cy="364.1" r="1.4"/>
<ellipse class="st0" cx="237.6" cy="382.2" rx="2.4" ry="2.4"/>
<ellipse class="st0" cx="219.5" cy="382.2" rx="2.1" ry="2.1"/>
<ellipse class="st0" cx="201.3" cy="382.2" rx="1.9" ry="1.9"/>
<ellipse class="st0" cx="183.1" cy="382.2" rx="1.7" ry="1.7"/>
<circle class="st0" cx="164.9" cy="382.2" r="1.6"/>
<circle class="st0" cx="146.7" cy="382.2" r="1.4"/>
<ellipse transform="matrix(7.088937e-02 -0.9975 0.9975 7.088937e-02 -261.8604 483.3691)" class="st0" cx="128.5" cy="382.2" rx="1.3" ry="1.3"/>
<ellipse class="st0" cx="128.5" cy="237.1" rx="2.4" ry="2.4"/>
<ellipse class="st0" cx="128.5" cy="219" rx="2.1" ry="2.1"/>
<ellipse class="st0" cx="128.5" cy="200.8" rx="1.9" ry="1.9"/>
<ellipse class="st0" cx="128.5" cy="182.7" rx="1.7" ry="1.7"/>
<circle class="st0" cx="128.5" cy="164.5" r="1.6"/>
<circle class="st0" cx="128.5" cy="146.4" r="1.4"/>
<ellipse class="st0" cx="237.6" cy="128.3" rx="2.4" ry="2.4"/>
<ellipse class="st0" cx="219.5" cy="128.3" rx="2.1" ry="2.1"/>
<ellipse class="st0" cx="201.3" cy="128.3" rx="1.9" ry="1.9"/>
<ellipse class="st0" cx="183.1" cy="128.3" rx="1.7" ry="1.7"/>
<circle class="st0" cx="164.9" cy="128.3" r="1.6"/>
<circle class="st0" cx="146.7" cy="128.3" r="1.4"/>
<circle class="st0" cx="128.5" cy="128.3" r="1.3"/>
<ellipse class="st0" cx="364.7" cy="255.2" rx="2.9" ry="2.9"/>
<ellipse class="st0" cx="364.7" cy="237.1" rx="2.6" ry="2.6"/>
<ellipse class="st0" cx="364.7" cy="219" rx="2.4" ry="2.4"/>
<ellipse class="st0" cx="364.7" cy="200.8" rx="2.1" ry="2.1"/>
<ellipse class="st0" cx="364.7" cy="182.7" rx="1.9" ry="1.9"/>
<ellipse class="st0" cx="364.7" cy="164.5" rx="1.7" ry="1.7"/>
<ellipse class="st0" cx="255.6" cy="146.4" rx="2.9" ry="2.9"/>
<ellipse class="st0" cx="273.8" cy="146.4" rx="2.6" ry="2.6"/>
<ellipse class="st0" cx="292" cy="146.4" rx="2.4" ry="2.4"/>
<ellipse class="st0" cx="310.1" cy="146.4" rx="2.1" ry="2.1"/>
<ellipse class="st0" cx="328.3" cy="146.4" rx="1.9" ry="1.9"/>
<ellipse class="st0" cx="346.5" cy="146.4" rx="1.7" ry="1.7"/>
<circle class="st0" cx="364.7" cy="146.4" r="1.6"/>
<ellipse class="st0" cx="364.7" cy="273.4" rx="2.6" ry="2.6"/>
<ellipse class="st0" cx="364.7" cy="291.5" rx="2.4" ry="2.4"/>
<ellipse class="st0" cx="364.7" cy="309.7" rx="2.1" ry="2.1"/>
<ellipse class="st0" cx="364.7" cy="327.8" rx="1.9" ry="1.9"/>
<ellipse class="st0" cx="364.7" cy="346" rx="1.7" ry="1.7"/>
<ellipse class="st0" cx="255.6" cy="364.1" rx="2.9" ry="2.9"/>
<ellipse class="st0" cx="273.8" cy="364.1" rx="2.6" ry="2.6"/>
<ellipse class="st0" cx="292" cy="364.1" rx="2.4" ry="2.4"/>
<ellipse class="st0" cx="310.1" cy="364.1" rx="2.1" ry="2.1"/>
<ellipse class="st0" cx="328.3" cy="364.1" rx="1.9" ry="1.9"/>
<ellipse class="st0" cx="346.5" cy="364.1" rx="1.7" ry="1.7"/>
<circle class="st0" cx="364.7" cy="364.1" r="1.6"/>
<ellipse class="st0" cx="146.7" cy="255.2" rx="2.9" ry="2.9"/>
<ellipse class="st0" cx="146.7" cy="273.4" rx="2.6" ry="2.6"/>
<ellipse class="st0" cx="146.7" cy="291.5" rx="2.4" ry="2.4"/>
<ellipse class="st0" cx="146.7" cy="309.7" rx="2.1" ry="2.1"/>
<ellipse class="st0" cx="146.7" cy="327.8" rx="1.9" ry="1.9"/>
<ellipse class="st0" cx="146.7" cy="346" rx="1.7" ry="1.7"/>
<ellipse class="st0" cx="237.6" cy="364.1" rx="2.6" ry="2.6"/>
<ellipse class="st0" cx="219.5" cy="364.1" rx="2.4" ry="2.4"/>
<ellipse class="st0" cx="201.3" cy="364.1" rx="2.1" ry="2.1"/>
<ellipse class="st0" cx="183.1" cy="364.1" rx="1.9" ry="1.9"/>
<ellipse class="st0" cx="164.9" cy="364.1" rx="1.7" ry="1.7"/>
<circle class="st0" cx="146.7" cy="364.1" r="1.6"/>
<ellipse class="st0" cx="146.7" cy="237.1" rx="2.6" ry="2.6"/>
<ellipse class="st0" cx="146.7" cy="219" rx="2.4" ry="2.4"/>
<ellipse class="st0" cx="146.7" cy="200.8" rx="2.1" ry="2.1"/>
<ellipse class="st0" cx="146.7" cy="182.7" rx="1.9" ry="1.9"/>
<ellipse class="st0" cx="146.7" cy="164.5" rx="1.7" ry="1.7"/>
<ellipse class="st0" cx="237.6" cy="146.4" rx="2.6" ry="2.6"/>
<ellipse class="st0" cx="219.5" cy="146.4" rx="2.4" ry="2.4"/>
<ellipse class="st0" cx="201.3" cy="146.4" rx="2.1" ry="2.1"/>
<ellipse class="st0" cx="183.1" cy="146.4" rx="1.9" ry="1.9"/>
<ellipse class="st0" cx="164.9" cy="146.4" rx="1.7" ry="1.7"/>
<circle class="st0" cx="146.7" cy="146.4" r="1.6"/>
<ellipse class="st0" cx="346.5" cy="255.2" rx="3.3" ry="3.2"/>
<ellipse class="st0" cx="346.5" cy="237.1" rx="2.9" ry="2.9"/>
<ellipse class="st0" cx="346.5" cy="219" rx="2.6" ry="2.6"/>
<ellipse class="st0" cx="346.5" cy="200.8" rx="2.4" ry="2.4"/>
<ellipse class="st0" cx="346.5" cy="182.7" rx="2.1" ry="2.1"/>
<ellipse class="st0" cx="255.6" cy="164.5" rx="3.3" ry="3.2"/>
<ellipse class="st0" cx="273.8" cy="164.5" rx="2.9" ry="2.9"/>
<ellipse class="st0" cx="292" cy="164.5" rx="2.6" ry="2.6"/>
<ellipse class="st0" cx="310.1" cy="164.5" rx="2.4" ry="2.4"/>
<ellipse class="st0" cx="328.3" cy="164.5" rx="2.1" ry="2.1"/>
<ellipse class="st0" cx="346.5" cy="164.5" rx="1.9" ry="1.9"/>
<ellipse class="st0" cx="346.5" cy="273.4" rx="2.9" ry="2.9"/>
<ellipse class="st0" cx="346.5" cy="291.5" rx="2.6" ry="2.6"/>
<ellipse class="st0" cx="346.5" cy="309.7" rx="2.4" ry="2.4"/>
<ellipse class="st0" cx="346.5" cy="327.8" rx="2.1" ry="2.1"/>
<ellipse class="st0" cx="255.6" cy="346" rx="3.3" ry="3.2"/>
<ellipse class="st0" cx="273.8" cy="346" rx="2.9" ry="2.9"/>
<ellipse class="st0" cx="292" cy="346" rx="2.6" ry="2.6"/>
<ellipse class="st0" cx="310.1" cy="346" rx="2.4" ry="2.4"/>
<ellipse class="st0" cx="328.3" cy="346" rx="2.1" ry="2.1"/>
<ellipse class="st0" cx="346.5" cy="346" rx="1.9" ry="1.9"/>
<ellipse class="st0" cx="164.9" cy="255.2" rx="3.3" ry="3.2"/>
<ellipse class="st0" cx="164.9" cy="273.4" rx="2.9" ry="2.9"/>
<ellipse class="st0" cx="164.9" cy="291.5" rx="2.6" ry="2.6"/>
<ellipse class="st0" cx="164.9" cy="309.7" rx="2.4" ry="2.4"/>
<ellipse class="st0" cx="164.9" cy="327.8" rx="2.1" ry="2.1"/>
<ellipse class="st0" cx="237.6" cy="346" rx="2.9" ry="2.9"/>
<ellipse class="st0" cx="219.5" cy="346" rx="2.6" ry="2.6"/>
<ellipse class="st0" cx="201.3" cy="346" rx="2.4" ry="2.4"/>
<ellipse class="st0" cx="183.1" cy="346" rx="2.1" ry="2.1"/>
<ellipse class="st0" cx="164.9" cy="346" rx="1.9" ry="1.9"/>
<ellipse class="st0" cx="164.9" cy="237.1" rx="2.9" ry="2.9"/>
<ellipse class="st0" cx="164.9" cy="219" rx="2.6" ry="2.6"/>
<ellipse class="st0" cx="164.9" cy="200.8" rx="2.4" ry="2.4"/>
<ellipse class="st0" cx="164.9" cy="182.7" rx="2.1" ry="2.1"/>
<ellipse class="st0" cx="237.6" cy="164.5" rx="2.9" ry="2.9"/>
<ellipse class="st0" cx="219.5" cy="164.5" rx="2.6" ry="2.6"/>
<ellipse class="st0" cx="201.3" cy="164.5" rx="2.4" ry="2.4"/>
<ellipse class="st0" cx="183.1" cy="164.5" rx="2.1" ry="2.1"/>
<ellipse class="st0" cx="164.9" cy="164.5" rx="1.9" ry="1.9"/>
<ellipse class="st0" cx="328.3" cy="255.2" rx="3.6" ry="3.6"/>
<ellipse class="st0" cx="328.3" cy="237.1" rx="3.3" ry="3.2"/>
<ellipse class="st0" cx="328.3" cy="219" rx="2.9" ry="2.9"/>
<ellipse class="st0" cx="328.3" cy="200.8" rx="2.6" ry="2.6"/>
<ellipse class="st0" cx="255.6" cy="182.7" rx="3.6" ry="3.6"/>
<ellipse class="st0" cx="273.8" cy="182.7" rx="3.3" ry="3.2"/>
<ellipse class="st0" cx="292" cy="182.7" rx="2.9" ry="2.9"/>
<ellipse class="st0" cx="310.1" cy="182.7" rx="2.6" ry="2.6"/>
<ellipse class="st0" cx="328.3" cy="182.7" rx="2.4" ry="2.4"/>
<ellipse class="st0" cx="328.3" cy="273.4" rx="3.3" ry="3.2"/>
<ellipse class="st0" cx="328.3" cy="291.5" rx="2.9" ry="2.9"/>
<ellipse class="st0" cx="328.3" cy="309.7" rx="2.6" ry="2.6"/>
<ellipse class="st0" cx="255.6" cy="327.8" rx="3.6" ry="3.6"/>
<ellipse class="st0" cx="273.8" cy="327.8" rx="3.3" ry="3.2"/>
<ellipse class="st0" cx="292" cy="327.8" rx="2.9" ry="2.9"/>
<ellipse class="st0" cx="310.1" cy="327.8" rx="2.6" ry="2.6"/>
<ellipse class="st0" cx="328.3" cy="327.8" rx="2.4" ry="2.4"/>
<ellipse class="st0" cx="183.1" cy="255.2" rx="3.6" ry="3.6"/>
<ellipse class="st0" cx="183.1" cy="273.4" rx="3.3" ry="3.2"/>
<ellipse class="st0" cx="183.1" cy="291.5" rx="2.9" ry="2.9"/>
<ellipse class="st0" cx="183.1" cy="309.7" rx="2.6" ry="2.6"/>
<ellipse class="st0" cx="237.6" cy="327.8" rx="3.3" ry="3.2"/>
<ellipse class="st0" cx="219.5" cy="327.8" rx="2.9" ry="2.9"/>
<ellipse class="st0" cx="201.3" cy="327.8" rx="2.6" ry="2.6"/>
<ellipse class="st0" cx="183.1" cy="327.8" rx="2.4" ry="2.4"/>
<ellipse class="st0" cx="183.1" cy="237.1" rx="3.3" ry="3.2"/>
<ellipse class="st0" cx="183.1" cy="219" rx="2.9" ry="2.9"/>
<ellipse class="st0" cx="183.1" cy="200.8" rx="2.6" ry="2.6"/>
<ellipse class="st0" cx="237.6" cy="182.7" rx="3.3" ry="3.2"/>
<ellipse class="st0" cx="219.5" cy="182.7" rx="2.9" ry="2.9"/>
<ellipse class="st0" cx="201.3" cy="182.7" rx="2.6" ry="2.6"/>
<ellipse class="st0" cx="183.1" cy="182.7" rx="2.4" ry="2.4"/>
<ellipse class="st0" cx="310.1" cy="255.2" rx="4" ry="4"/>
<ellipse class="st0" cx="310.1" cy="237.1" rx="3.6" ry="3.6"/>
<ellipse class="st0" cx="310.1" cy="219" rx="3.3" ry="3.2"/>
<ellipse class="st0" cx="255.6" cy="200.8" rx="4" ry="4"/>
<ellipse class="st0" cx="273.8" cy="200.8" rx="3.6" ry="3.6"/>
<ellipse class="st0" cx="292" cy="200.8" rx="3.3" ry="3.2"/>
<ellipse class="st0" cx="310.1" cy="200.8" rx="2.9" ry="2.9"/>
<ellipse class="st0" cx="310.1" cy="273.4" rx="3.6" ry="3.6"/>
<ellipse class="st0" cx="310.1" cy="291.5" rx="3.3" ry="3.2"/>
<ellipse class="st0" cx="255.6" cy="309.7" rx="4" ry="4"/>
<ellipse class="st0" cx="273.8" cy="309.7" rx="3.6" ry="3.6"/>
<ellipse class="st0" cx="292" cy="309.7" rx="3.3" ry="3.2"/>
<ellipse class="st0" cx="310.1" cy="309.7" rx="2.9" ry="2.9"/>
<ellipse class="st0" cx="201.3" cy="255.2" rx="4" ry="4"/>
<ellipse class="st0" cx="201.3" cy="273.4" rx="3.6" ry="3.6"/>
<ellipse class="st0" cx="201.3" cy="291.5" rx="3.3" ry="3.2"/>
<ellipse class="st0" cx="237.6" cy="309.7" rx="3.6" ry="3.6"/>
<ellipse class="st0" cx="219.5" cy="309.7" rx="3.3" ry="3.2"/>
<ellipse class="st0" cx="201.3" cy="309.7" rx="2.9" ry="2.9"/>
<ellipse class="st0" cx="201.3" cy="237.1" rx="3.6" ry="3.6"/>
<ellipse class="st0" cx="201.3" cy="219" rx="3.3" ry="3.2"/>
<ellipse class="st0" cx="237.6" cy="200.8" rx="3.6" ry="3.6"/>
<ellipse class="st0" cx="219.5" cy="200.8" rx="3.3" ry="3.2"/>
<ellipse class="st0" cx="201.3" cy="200.8" rx="2.9" ry="2.9"/>
<ellipse class="st0" cx="292" cy="255.2" rx="4.5" ry="4.5"/>
<ellipse class="st0" cx="292" cy="237.1" rx="4" ry="4"/>
<ellipse class="st0" cx="255.6" cy="219" rx="4.5" ry="4.5"/>
<ellipse class="st0" cx="273.8" cy="219" rx="4" ry="4"/>
<ellipse class="st0" cx="292" cy="219" rx="3.6" ry="3.6"/>
<ellipse class="st0" cx="292" cy="273.4" rx="4" ry="4"/>
<ellipse class="st0" cx="255.6" cy="291.5" rx="4.5" ry="4.5"/>
<ellipse class="st0" cx="273.8" cy="291.5" rx="4" ry="4"/>
<ellipse class="st0" cx="292" cy="291.5" rx="3.6" ry="3.6"/>
<ellipse class="st0" cx="219.5" cy="255.2" rx="4.5" ry="4.5"/>
<ellipse class="st0" cx="219.5" cy="273.4" rx="4" ry="4"/>
<ellipse class="st0" cx="237.6" cy="291.5" rx="4" ry="4"/>
<ellipse class="st0" cx="219.5" cy="291.5" rx="3.6" ry="3.6"/>
<ellipse class="st0" cx="219.5" cy="237.1" rx="4" ry="4"/>
<ellipse class="st0" cx="237.6" cy="219" rx="4" ry="4"/>
<ellipse class="st0" cx="219.5" cy="219" rx="3.6" ry="3.6"/>
<ellipse class="st0" cx="273.8" cy="255.2" rx="5" ry="5"/>
<ellipse class="st0" cx="255.6" cy="237.1" rx="5" ry="5"/>
<ellipse class="st0" cx="273.8" cy="237.1" rx="4.5" ry="4.5"/>
<ellipse class="st0" cx="255.6" cy="273.4" rx="5" ry="5"/>
<ellipse class="st0" cx="273.8" cy="273.4" rx="4.5" ry="4.5"/>
<ellipse class="st0" cx="237.6" cy="255.2" rx="5" ry="5"/>
<ellipse class="st0" cx="237.6" cy="273.4" rx="4.5" ry="4.5"/>
<ellipse class="st0" cx="237.6" cy="237.1" rx="4.5" ry="4.5"/>
<ellipse class="st0" cx="255.6" cy="255.2" rx="5.5" ry="5.5"/>
</svg>
