<?xml version="1.0" encoding="utf-8"?>
<!-- Generator: Adobe Illustrator 26.0.3, SVG Export Plug-In . SVG Version: 6.00 Build 0)  -->
<svg version="1.1" id="Layer_1" xmlns="http://www.w3.org/2000/svg" xmlns:xlink="http://www.w3.org/1999/xlink" x="0px" y="0px"
	 viewBox="0 0 81.5 243.3" style="enable-background:new 0 0 81.5 243.3;" xml:space="preserve">
<style type="text/css">
	.st0{fill:#00A651;}
</style>
<ellipse class="st0" cx="40.7" cy="5.5" rx="5.5" ry="5.5"/>
<ellipse class="st0" cx="40.7" cy="23.7" rx="5" ry="5"/>
<ellipse class="st0" cx="40.7" cy="41.9" rx="4.5" ry="4.5"/>
<ellipse class="st0" cx="40.7" cy="60.1" rx="4" ry="4"/>
<ellipse class="st0" cx="40.7" cy="78.2" rx="3.6" ry="3.6"/>
<ellipse class="st0" cx="40.7" cy="96.4" rx="3.2" ry="3.3"/>
<ellipse class="st0" cx="40.7" cy="114.6" rx="2.9" ry="2.9"/>
<ellipse class="st0" cx="40.7" cy="132.8" rx="2.6" ry="2.6"/>
<ellipse class="st0" cx="40.7" cy="151" rx="2.4" ry="2.4"/>
<ellipse class="st0" cx="40.7" cy="169.2" rx="2.1" ry="2.1"/>
<ellipse class="st0" cx="40.7" cy="187.4" rx="1.9" ry="1.9"/>
<ellipse class="st0" cx="40.7" cy="205.5" rx="1.7" ry="1.7"/>
<circle class="st0" cx="40.7" cy="223.7" r="1.6"/>
<circle class="st0" cx="40.7" cy="241.9" r="1.4"/>
<ellipse class="st0" cx="58.9" cy="5.5" rx="5" ry="5"/>
<ellipse class="st0" cx="58.9" cy="23.7" rx="4.5" ry="4.5"/>
<ellipse class="st0" cx="58.9" cy="41.9" rx="4" ry="4"/>
<ellipse class="st0" cx="58.9" cy="60.1" rx="3.6" ry="3.6"/>
<ellipse class="st0" cx="58.9" cy="78.2" rx="3.2" ry="3.3"/>
<ellipse class="st0" cx="58.9" cy="96.4" rx="2.9" ry="2.9"/>
<ellipse class="st0" cx="58.9" cy="114.6" rx="2.6" ry="2.6"/>
<ellipse class="st0" cx="58.9" cy="132.8" rx="2.4" ry="2.4"/>
<ellipse class="st0" cx="58.9" cy="151" rx="2.1" ry="2.1"/>
<ellipse class="st0" cx="58.9" cy="169.2" rx="1.9" ry="1.9"/>
<ellipse class="st0" cx="58.9" cy="187.4" rx="1.7" ry="1.7"/>
<circle class="st0" cx="58.9" cy="205.5" r="1.6"/>
<circle class="st0" cx="58.9" cy="223.7" r="1.4"/>
<circle class="st0" cx="58.9" cy="241.9" r="1.3"/>
<ellipse class="st0" cx="77" cy="5.5" rx="4.5" ry="4.5"/>
<ellipse class="st0" cx="77" cy="23.7" rx="4" ry="4"/>
<ellipse class="st0" cx="77" cy="41.9" rx="3.6" ry="3.6"/>
<ellipse class="st0" cx="77" cy="60.1" rx="3.2" ry="3.3"/>
<ellipse class="st0" cx="77" cy="78.2" rx="2.9" ry="2.9"/>
<ellipse class="st0" cx="77" cy="96.4" rx="2.6" ry="2.6"/>
<ellipse class="st0" cx="77" cy="114.6" rx="2.4" ry="2.4"/>
<ellipse class="st0" cx="77" cy="132.8" rx="2.1" ry="2.1"/>
<ellipse class="st0" cx="77" cy="151" rx="1.9" ry="1.9"/>
<ellipse class="st0" cx="77" cy="169.2" rx="1.7" ry="1.7"/>
<circle class="st0" cx="77" cy="187.4" r="1.6"/>
<circle class="st0" cx="77" cy="205.5" r="1.4"/>
<circle class="st0" cx="77" cy="223.7" r="1.3"/>
<circle class="st0" cx="77" cy="241.9" r="1.1"/>
<ellipse class="st0" cx="22.6" cy="5.5" rx="5" ry="5"/>
<ellipse class="st0" cx="22.6" cy="23.7" rx="4.5" ry="4.5"/>
<ellipse class="st0" cx="22.6" cy="41.9" rx="4" ry="4"/>
<ellipse class="st0" cx="22.6" cy="60.1" rx="3.6" ry="3.6"/>
<ellipse class="st0" cx="22.6" cy="78.2" rx="3.2" ry="3.3"/>
<ellipse class="st0" cx="22.6" cy="96.4" rx="2.9" ry="2.9"/>
<ellipse class="st0" cx="22.6" cy="114.6" rx="2.6" ry="2.6"/>
<ellipse class="st0" cx="22.6" cy="132.8" rx="2.4" ry="2.4"/>
<ellipse class="st0" cx="22.6" cy="151" rx="2.1" ry="2.1"/>
<ellipse class="st0" cx="22.6" cy="169.2" rx="1.9" ry="1.9"/>
<ellipse class="st0" cx="22.6" cy="187.4" rx="1.7" ry="1.7"/>
<circle class="st0" cx="22.6" cy="205.5" r="1.6"/>
<circle class="st0" cx="22.6" cy="223.7" r="1.4"/>
<circle class="st0" cx="22.6" cy="241.9" r="1.3"/>
<ellipse class="st0" cx="4.5" cy="5.5" rx="4.5" ry="4.5"/>
<ellipse class="st0" cx="4.5" cy="23.7" rx="4" ry="4"/>
<ellipse class="st0" cx="4.5" cy="41.9" rx="3.6" ry="3.6"/>
<ellipse class="st0" cx="4.5" cy="60.1" rx="3.2" ry="3.3"/>
<ellipse class="st0" cx="4.5" cy="78.2" rx="2.9" ry="2.9"/>
<ellipse class="st0" cx="4.5" cy="96.4" rx="2.6" ry="2.6"/>
<ellipse class="st0" cx="4.5" cy="114.6" rx="2.4" ry="2.4"/>
<ellipse class="st0" cx="4.5" cy="132.8" rx="2.1" ry="2.1"/>
<ellipse class="st0" cx="4.5" cy="151" rx="1.9" ry="1.9"/>
<ellipse class="st0" cx="4.5" cy="169.2" rx="1.7" ry="1.7"/>
<circle class="st0" cx="4.5" cy="187.4" r="1.6"/>
<circle class="st0" cx="4.5" cy="205.5" r="1.4"/>
<circle class="st0" cx="4.5" cy="223.7" r="1.3"/>
<circle class="st0" cx="4.5" cy="241.9" r="1.1"/>
</svg>
