<svg xmlns="http://www.w3.org/2000/svg" viewBox="0 0 882.29 756.94"><defs><style>.a{opacity:0.49;}.b{opacity:0.35;}.c{fill:#00a551;}.d{opacity:0.25;}.e{opacity:0.15;}.f{opacity:0.4;}.g{opacity:0.45;}</style></defs><g class="a"><g class="b"><path class="c" d="M104.45,450.66a3.22,3.22,0,0,0-.16-5.84A76.49,76.49,0,0,0,.12,496.36,3.23,3.23,0,0,0,4.67,500l35.52-17.58h0Z"/><path class="c" d="M4.65,529.89A3.22,3.22,0,0,0,.1,533.57,76.47,76.47,0,0,0,104.3,585a3.22,3.22,0,0,0,.16-5.84L68.93,561.65h0Z"/><path class="c" d="M35.28,496.37,4.15,511.77a3.4,3.4,0,0,0,0,6.1l31.13,15.4h0a3.4,3.4,0,0,0,4.91-3v-30.8A3.4,3.4,0,0,0,35.28,496.37Z"/><path class="c" d="M117.55,574a5.76,5.76,0,0,0,6.31-.77,76.41,76.41,0,0,0-.44-116.59,5.78,5.78,0,0,0-6.29-.75L53.7,487.25a5.78,5.78,0,0,0-3.22,5.19V537.2a5.78,5.78,0,0,0,3.22,5.19Z"/></g><g class="d"><path class="c" d="M202.21,230.45a2.57,2.57,0,0,0-.13-4.67A61.17,61.17,0,0,0,118.75,267a2.58,2.58,0,0,0,3.64,2.94l28.41-14.06h0Z"/><path class="c" d="M122.37,293.84a2.58,2.58,0,0,0-3.64,2.94A61.2,61.2,0,0,0,202.09,338a2.58,2.58,0,0,0,.13-4.68l-28.43-14h0Z"/><path class="c" d="M146.87,267,122,279.34a2.72,2.72,0,0,0,0,4.88l24.9,12.32h0a2.72,2.72,0,0,0,3.93-2.44V269.46A2.72,2.72,0,0,0,146.87,267Z"/><path class="c" d="M212.69,329.11a4.62,4.62,0,0,0,5.05-.62,61.14,61.14,0,0,0-.36-93.28,4.62,4.62,0,0,0-5-.59l-50.74,25.1a4.64,4.64,0,0,0-2.58,4.16v35.8a4.63,4.63,0,0,0,2.58,4.15Z"/></g><g class="e"><path class="c" d="M301.14,7.67A2.06,2.06,0,0,0,301,3.93a48.94,48.94,0,0,0-66.66,33,2.06,2.06,0,0,0,2.91,2.35L260,28h0Z"/><path class="c" d="M237.26,58.38a2.06,2.06,0,0,0-2.91,2.35A48.94,48.94,0,0,0,301,93.67a2.06,2.06,0,0,0,.1-3.74L278.4,78.7h0Z"/><path class="c" d="M256.86,36.92l-19.92,9.86a2.18,2.18,0,0,0,0,3.9l19.92,9.86h0A2.18,2.18,0,0,0,260,58.59V38.87A2.18,2.18,0,0,0,256.86,36.92Z"/><path class="c" d="M309.52,86.59a3.69,3.69,0,0,0,4-.49,48.91,48.91,0,0,0-.29-74.62,3.69,3.69,0,0,0-4-.48l-40.6,20.09a3.7,3.7,0,0,0-2.06,3.32V63.05a3.7,3.7,0,0,0,2.06,3.32Z"/></g><g class="f"><path class="c" d="M380.25,533.53a3.22,3.22,0,0,0-.17-5.84,76.48,76.48,0,0,0-104.16,51.54,3.22,3.22,0,0,0,4.55,3.67L316,565.33h0Z"/><path class="c" d="M280.44,612.76a3.22,3.22,0,0,0-4.54,3.68,76.48,76.48,0,0,0,104.2,51.47,3.22,3.22,0,0,0,.16-5.84l-35.54-17.55h0Z"/><path class="c" d="M311.07,579.24l-31.13,15.4a3.41,3.41,0,0,0,0,6.1l31.13,15.4h0a3.41,3.41,0,0,0,4.92-3v-30.8A3.41,3.41,0,0,0,311.07,579.24Z"/><path class="c" d="M393.34,656.85a5.78,5.78,0,0,0,6.32-.78,76.41,76.41,0,0,0-.45-116.59,5.78,5.78,0,0,0-6.29-.74l-63.43,31.38a5.8,5.8,0,0,0-3.22,5.19v44.76a5.8,5.8,0,0,0,3.22,5.19Z"/></g><g class="d"><path class="c" d="M478,313.32a2.57,2.57,0,0,0-.14-4.67,61.17,61.17,0,0,0-83.33,41.23,2.58,2.58,0,0,0,3.64,2.94l28.42-14.06h0Z"/><path class="c" d="M398.16,376.71a2.57,2.57,0,0,0-3.63,2.94,61.19,61.19,0,0,0,83.36,41.17,2.57,2.57,0,0,0,.12-4.67l-28.42-14h0Z"/><path class="c" d="M422.67,349.88l-24.91,12.33a2.72,2.72,0,0,0,0,4.88l24.91,12.32h0A2.72,2.72,0,0,0,426.6,377V352.32A2.73,2.73,0,0,0,422.67,349.88Z"/><path class="c" d="M488.48,412a4.64,4.64,0,0,0,5.06-.61,61.14,61.14,0,0,0-.36-93.28,4.65,4.65,0,0,0-5-.6L437.4,342.59a4.64,4.64,0,0,0-2.57,4.15v35.81a4.64,4.64,0,0,0,2.57,4.15Z"/></g><g class="e"><path class="c" d="M576.93,90.54a2.06,2.06,0,0,0-.1-3.74,49,49,0,0,0-66.67,33,2.06,2.06,0,0,0,2.91,2.36l22.73-11.25h0Z"/><path class="c" d="M513.06,141.25a2.06,2.06,0,0,0-2.91,2.35,49,49,0,0,0,66.69,32.94,2.06,2.06,0,0,0,.1-3.74L554.2,161.57h0Z"/><path class="c" d="M532.66,119.79l-19.92,9.86a2.17,2.17,0,0,0,0,3.9l19.92,9.86h0a2.17,2.17,0,0,0,3.14-1.95V121.74A2.17,2.17,0,0,0,532.66,119.79Z"/><path class="c" d="M585.31,169.46a3.7,3.7,0,0,0,4.05-.49,48.91,48.91,0,0,0-.29-74.62,3.71,3.71,0,0,0-4-.48L544.45,114a3.7,3.7,0,0,0-2.06,3.32v28.64a3.7,3.7,0,0,0,2.06,3.32Z"/></g><g class="g"><path class="c" d="M656,616.4a3.22,3.22,0,0,0-.16-5.84A76.47,76.47,0,0,0,551.71,662.1a3.22,3.22,0,0,0,4.55,3.67l35.52-17.57h0Z"/><path class="c" d="M556.24,695.63a3.22,3.22,0,0,0-4.55,3.68,76.5,76.5,0,0,0,104.2,51.47,3.21,3.21,0,0,0,.16-5.84l-35.53-17.56h0Z"/><path class="c" d="M586.87,662.1l-31.13,15.41a3.4,3.4,0,0,0,0,6.1L586.87,699h0a3.4,3.4,0,0,0,4.91-3V665.15A3.4,3.4,0,0,0,586.87,662.1Z"/><path class="c" d="M669.14,739.72a5.8,5.8,0,0,0,6.32-.78A76.42,76.42,0,0,0,675,622.35a5.8,5.8,0,0,0-6.29-.75L605.29,653a5.8,5.8,0,0,0-3.22,5.19v44.75a5.78,5.78,0,0,0,3.22,5.19Z"/></g><g class="d"><path class="c" d="M753.8,396.19a2.58,2.58,0,0,0-.13-4.68,61.19,61.19,0,0,0-83.33,41.24,2.58,2.58,0,0,0,3.64,2.94l28.41-14.06h0Z"/><path class="c" d="M674,459.57a2.58,2.58,0,0,0-3.64,2.95,61.19,61.19,0,0,0,83.36,41.17,2.57,2.57,0,0,0,.13-4.67l-28.43-14h0Z"/><path class="c" d="M698.46,432.75l-24.9,12.32a2.72,2.72,0,0,0,0,4.88l24.9,12.33h0a2.72,2.72,0,0,0,3.93-2.44V435.19A2.72,2.72,0,0,0,698.46,432.75Z"/><path class="c" d="M764.28,494.84a4.6,4.6,0,0,0,5.05-.62A61.13,61.13,0,0,0,769,401a4.64,4.64,0,0,0-5-.6L713.2,425.46a4.63,4.63,0,0,0-2.58,4.15v35.81a4.63,4.63,0,0,0,2.58,4.15Z"/></g><g class="e"><path class="c" d="M852.73,173.41a2.06,2.06,0,0,0-.11-3.74,48.95,48.95,0,0,0-66.66,33,2.06,2.06,0,0,0,2.91,2.36l22.73-11.25h0Z"/><path class="c" d="M788.85,224.11a2.07,2.07,0,0,0-2.91,2.36,49,49,0,0,0,66.69,32.94,2.06,2.06,0,0,0,.1-3.74L830,244.44h0Z"/><path class="c" d="M808.46,202.66l-19.93,9.86a2.18,2.18,0,0,0,0,3.9l19.93,9.86h0a2.18,2.18,0,0,0,3.14-1.95V204.61A2.17,2.17,0,0,0,808.46,202.66Z"/><path class="c" d="M861.11,252.33a3.67,3.67,0,0,0,4-.5,48.9,48.9,0,0,0-.29-74.61,3.69,3.69,0,0,0-4-.48l-40.59,20.08a3.72,3.72,0,0,0-2.07,3.33v28.64a3.69,3.69,0,0,0,2.07,3.32Z"/></g></g></svg>