<?xml version="1.0" encoding="utf-8"?>
<!-- Generator: Adobe Illustrator 25.4.1, SVG Export Plug-In . SVG Version: 6.00 Build 0)  -->
<svg version="1.1" id="Layer_1" xmlns="http://www.w3.org/2000/svg" xmlns:xlink="http://www.w3.org/1999/xlink" x="0px" y="0px"
	 viewBox="0 0 24 24" style="enable-background:new 0 0 24 24;" xml:space="preserve">
<style type="text/css">
	.st0{fill:#50B154;}
</style>
<path class="st0" d="M16,17v2H2v-2c0,0,0-4,7-4S16,17,16,17 M12.5,7.5C12.5,5.6,10.9,4,9,4S5.5,5.6,5.5,7.5S7.1,11,9,11
	S12.5,9.4,12.5,7.5 M15.9,13c1.2,1,2,2.4,2.1,4v2h4v-2C22,17,22,13.4,15.9,13 M15,4c-0.7,0-1.4,0.2-1.9,0.6c1.2,1.7,1.2,4.1,0,5.8
	c0.6,0.4,1.2,0.6,1.9,0.6c1.9,0,3.5-1.6,3.5-3.5S16.9,4,15,4z"/>
</svg>
