<?xml version="1.0" encoding="utf-8"?>
<!-- Generator: Adobe Illustrator 26.0.3, SVG Export Plug-In . SVG Version: 6.00 Build 0)  -->
<svg version="1.1" id="Layer_1" xmlns="http://www.w3.org/2000/svg" xmlns:xlink="http://www.w3.org/1999/xlink" x="0px" y="0px"
	 viewBox="0 0 24 24" style="enable-background:new 0 0 24 24;" xml:space="preserve">
<style type="text/css">
	.st0{fill:#868686;}
</style>
<path class="st0" d="M16.6,15.1c-0.5,0-0.8-0.4-0.8-0.8s0.4-0.8,0.8-0.8l0,0c0.5,0,0.8,0.4,0.8,0.8S17.1,15.1,16.6,15.1 M7.4,15.1
	c-0.5,0-0.8-0.4-0.8-0.8s0.4-0.8,0.8-0.8l0,0c0.5,0,0.8,0.4,0.8,0.8S7.9,15.1,7.4,15.1 M16.9,10.1l1.7-2.9c0.1-0.2,0-0.4-0.1-0.5
	c-0.2-0.1-0.4,0-0.5,0.1l-1.7,2.9c-1.3-0.6-2.8-0.9-4.3-0.9c-1.5,0-3,0.3-4.3,0.9L6,6.9C5.9,6.7,5.7,6.7,5.6,6.8
	C5.4,6.9,5.3,7.1,5.4,7.2l1.7,2.9C4.2,11.7,2.3,14.6,2,18h20C21.7,14.6,19.8,11.7,16.9,10.1L16.9,10.1z"/>
</svg>
