<?xml version="1.0" encoding="utf-8"?>
<!-- Generator: Adobe Illustrator 25.4.1, SVG Export Plug-In . SVG Version: 6.00 Build 0)  -->
<svg version="1.1" id="Layer_1" xmlns="http://www.w3.org/2000/svg" xmlns:xlink="http://www.w3.org/1999/xlink" x="0px" y="0px"
	 viewBox="0 0 24 24" style="enable-background:new 0 0 24 24;" xml:space="preserve">
<style type="text/css">
	.st0{fill:#2196F3;}
</style>
<path class="st0" d="M16,22c2.2,0,4-1.8,4-4v-7c0-1.1-0.9-2-2-2h-3V5c0-1.1-0.9-2-2-2h-2C9.9,3,9,3.9,9,5v4H6c-1.1,0-2,0.9-2,2v11
	H16 M16,20h-4v-2h-2v2H9v-4H7v4H6v-5h12v3C18,19.1,17.1,20,16,20 M18,11v2H6v-2H18z"/>
</svg>
