<?xml version="1.0" encoding="utf-8"?>
<!-- Generator: Adobe Illustrator 26.0.3, SVG Export Plug-In . SVG Version: 6.00 Build 0)  -->
<svg version="1.1" xmlns="http://www.w3.org/2000/svg" xmlns:xlink="http://www.w3.org/1999/xlink" x="0px" y="0px"
	 viewBox="0 0 24 24" style="enable-background:new 0 0 24 24;" xml:space="preserve">
<style type="text/css">
	.st0{display:none;}
	.st1{display:inline;}
	.st2{fill:#1C75BC;}
</style>
<g id="Layer_1" class="st0">
	<path class="st1" d="M3,6h17.6C20.8,6,21,6.2,21,6.4v1.2C21,7.8,20.8,8,20.6,8H3.4C3.2,8,3,7.8,3,7.6V6 M3,11h17.6
		c0.2,0,0.4,0.2,0.4,0.4v1.2c0,0.2-0.2,0.4-0.4,0.4H3.4C3.2,13,3,12.8,3,12.6V11 M3.4,16h17.2c0.2,0,0.4,0.2,0.4,0.4v1.2
		c0,0.2-0.2,0.4-0.4,0.4H3.4C3.2,18,3,17.8,3,17.6v-1.2C3,16.2,3.2,16,3.4,16z"/>
</g>
<g id="Layer_2">
	<path class="st2" d="M3.4,16h17.2c0.2,0,0.4,0.2,0.4,0.4v1.2c0,0.2-0.2,0.4-0.4,0.4H3.4C3.2,18,3,17.8,3,17.6v-1.2
		C3,16.2,3.2,16,3.4,16z"/>
	<path class="st2" d="M3.4,11h17.2c0.2,0,0.4,0.2,0.4,0.4v1.2c0,0.2-0.2,0.4-0.4,0.4H3.4C3.2,13,3,12.8,3,12.6v-1.2
		C3,11.2,3.2,11,3.4,11z"/>
	<path class="st2" d="M3.4,6h17.2C20.8,6,21,6.2,21,6.4v1.2C21,7.9,20.8,8,20.6,8H3.4C3.2,8,3,7.9,3,7.7V6.4C3,6.2,3.2,6,3.4,6z"/>
</g>
</svg>
