<svg xmlns="http://www.w3.org/2000/svg" viewBox="0 0 392.62 392.97"><defs><style>.cls-1{fill:#00a651;}.cls-1,.cls-2,.cls-3{fill-rule:evenodd;}.cls-2{fill:#fff;}.cls-3{fill:#1c75bc;}</style></defs><g id="Layer_2" data-name="Layer 2"><g id="Layer_12" data-name="Layer 12"><path class="cls-1" d="M196.31,0C87.89,0,0,88,0,196.48S87.89,393,196.31,393s196.31-88,196.31-196.49S304.73,0,196.31,0Z"/><path class="cls-2" d="M350.52,196.48a9.35,9.35,0,0,1-9.35,9.35H51.45a9.35,9.35,0,0,1,0-18.69H341.17A9.35,9.35,0,0,1,350.52,196.48Z"/><path class="cls-2" d="M196.31,42.28a9.35,9.35,0,0,1,9.35,9.34V341.34a9.35,9.35,0,1,1-18.69,0V51.62A9.34,9.34,0,0,1,196.31,42.28Z"/><path class="cls-2" d="M196.31,85.41a111.08,111.08,0,1,1-111,111.07A111,111,0,0,1,196.31,85.41Z"/><path class="cls-3" d="M196.31,104.1A92.39,92.39,0,1,1,104,196.48,92.35,92.35,0,0,1,196.31,104.1Z"/><path class="cls-2" d="M196.31,173.12A23.37,23.37,0,1,1,173,196.48,23.36,23.36,0,0,1,196.31,173.12Z"/></g></g></svg>